<?xml version="1.0" encoding="utf-8"?>
<svg width="800px" height="800px" viewBox="0 0 14 14" xmlns="http://www.w3.org/2000/svg">
  <path fill="currentColor"
    d="m 2.6335217,12.427699 c -0.55872,-0.1705 -1.16178,-0.6754 -1.40364,-1.175 -0.43025995,-0.8888 -0.24254995,-2.0007997 0.44595,-2.6416997 0.50091,-0.4664 0.81061,-0.5871 1.69512,-0.6606 0.70186,-0.058 1.15563,-0.2367 1.47772,-0.581 0.60047,-0.6417 0.68987,-1.6179 0.21701,-2.3697 -0.75114,-1.1942 -0.20965,-2.839 1.09848,-3.3368 1.09577,-0.4169 2.34637,0.077 2.86421,1.1317 0.1606,0.327 0.18507,0.4563 0.18507,0.978 0,0.5721 -0.0136,0.6288 -0.28142,1.1691 -0.15905,0.3209 -0.30024,0.7163 -0.3247,0.9094 -0.0882,0.6963 0.29661,1.4653 0.92891,1.8563 0.27682,0.1711 0.40874,0.2031 1.0151403,0.2464 0.52467,0.037 0.78687,0.091 1.06064,0.2163 1.53532,0.7029 1.86709,2.6370997 0.64135,3.7391997 -0.48652,0.4374 -0.95931,0.6011 -1.6371,0.5668 -0.44854,-0.023 -0.60239,-0.063 -0.9575103,-0.2526 -0.41684,-0.2221 -0.76178,-0.5693 -0.96628,-0.9726 -0.13319,-0.2626 -0.66185,-0.7498 -0.93599,-0.8626 -0.90973,-0.3741 -1.84876,-0.054 -2.41717,0.8251 -0.57166,0.8837 -1.22696,1.2821 -2.09039,1.2711 -0.24662,0 -0.52355,-0.029 -0.6154,-0.057 z m" />
</svg>