<svg width="637" height="139" viewBox="0 0 637 139" fill="none" xmlns="http://www.w3.org/2000/svg">
  <path
    d="M539.273 79.9118C536.304 70.9742 539.644 60.7331 537.232 51.9816C536.304 47.8852 537.232 37.4579 537.232 34.8511C539.273 25.3549 561.352 3.19693 570.815 2.26592L591.595 0.403915C604.026 -0.527101 612.376 24.7963 612.376 32.9891C612.376 34.1063 610.892 40.6234 610.892 41.7406C592.894 65.3881 581.019 67.9949 554.116 75.443C560.981 83.822 586.586 98.3457 599.574 99.8353C609.964 100.766 622.209 87.1737 631.115 87.1737C636.125 87.1737 636.125 89.0357 636.125 93.5045C636.125 105.235 612.19 109.89 601.243 109.89C579.535 109.89 553.931 91.8287 539.273 79.9118ZM547.622 39.6924L551.147 63.7123C571.928 69.6707 598.46 51.0506 598.46 31.1271C598.46 22.1894 595.492 13.6242 583.617 13.0656C565.249 12.1346 556.343 28.8927 547.622 39.6924Z"
    fill="currentColor" />
  <path
    d="M445.662 123.669C445.662 122.366 447.889 119.2 447.889 117.897C447.889 116.966 448.817 109.704 448.817 108.773C450.115 100.766 452.898 91.6425 456.424 83.6359L457.351 81.4015C463.845 70.0432 469.04 58.8711 475.534 47.1404C475.534 46.2094 479.802 42.6716 479.802 41.5544C482.028 36.8994 483.142 33.5478 488.337 33.5478C493.717 33.5478 494.831 36.8994 494.831 42.6716C494.831 49.7473 489.264 51.6093 486.296 57.5677C485.368 59.9883 478.689 73.3948 477.761 75.8154L474.607 80.2843C470.154 88.2909 469.04 95.3665 465.886 103.001L463.845 107.656C463.845 108.959 462.732 113.242 462.732 114.545V120.131C470.154 120.131 479.802 119.014 487.409 116.78C498.912 113.428 509.859 105.421 522.662 105.421H526.929L528.97 106.539L530.083 107.656V115.662C530.083 117.897 523.589 120.131 522.662 120.131C513.014 122.552 504.664 125.717 495.944 129.255C483.142 133.91 468.298 136.145 454.197 136.145H447.889L445.662 133.91V123.669Z"
    fill="currentColor" />
  <path
    d="M314.609 127.393C314.609 72.0913 339.842 5.61746 402.926 5.61746H418.697C431.314 15.1137 434.468 27.7754 434.468 41.9267C434.468 46.9541 435.952 53.0988 429.644 53.0988C415.729 53.0988 421.666 27.9616 412.389 21.4446C410.719 21.4446 396.803 18.2791 395.134 18.2791C340.214 18.2791 330.194 90.8976 327.226 135.213C325.556 138.379 324.072 138.379 320.917 138.379C314.423 138.379 314.609 133.724 314.609 127.393ZM363.035 72.4637C358.397 72.4637 356.727 62.595 361.922 59.4296H372.869C388.64 59.4296 399.772 65.9466 399.772 83.0771C399.772 90.8976 393.835 98.5318 387.712 92.0148C384.558 88.2908 376.208 72.4637 363.035 72.4637Z"
    fill="currentColor" />
  <path
    d="M270.004 134.283L267.407 95.1804C267.407 87.1738 273.715 74.3259 281.693 74.3259C289.671 74.3259 288.187 78.2361 288.187 84.7531C288.187 89.9668 289.486 95.1804 284.291 97.7872V134.283C284.291 136.889 277.797 136.889 276.498 136.889C275.199 136.889 270.004 136.889 270.004 134.283ZM254.419 21.0723C254.419 14.5553 263.325 4.12803 270.004 4.12803C280.394 4.12803 298.577 4.12803 298.577 19.7689C298.577 27.7756 294.681 35.4098 288.187 40.6235H279.096C268.705 40.6235 254.419 34.1064 254.419 21.0723Z"
    fill="currentColor" />
  <path
    d="M111.833 13.0657C111.833 10.4589 113.318 4.12803 115.73 4.12803H124.636C125.563 4.12803 128.346 10.4589 128.346 11.7623C128.346 13.2519 129.645 21.8171 129.645 23.3068C131.129 28.3342 133.727 46.2095 134.655 50.1197C134.655 51.4231 137.252 56.4506 137.252 57.754C137.252 59.0574 138.551 64.0848 138.551 65.3882C138.551 69.2984 139.85 93.6908 139.85 98.532V131.862C139.85 132.793 137.252 136.889 135.954 136.889H127.048L125.749 135.586L124.636 132.979L122.038 69.2984C122.038 64.0848 119.44 60.3608 118.142 55.1472C118.142 53.8437 116.843 47.5129 116.843 46.2095C115.915 34.8512 111.833 24.7964 111.833 13.0657ZM174.175 90.8978V88.291C174.175 84.3808 175.474 83.2635 179.37 83.2635C185.864 83.2635 193.1 91.084 197.182 94.6218C209.799 99.6492 220.003 112.497 228.909 126.648V129.255C228.909 134.283 227.611 135.586 222.601 135.586C218.89 135.586 213.51 126.835 211.097 122.924C199.408 108.773 185.864 96.8562 174.175 90.8978ZM141.149 69.2984C141.149 66.5054 142.447 64.0848 144.859 64.0848C150.055 64.0848 152.281 67.995 157.662 67.995C165.269 67.995 170.279 62.7814 176.772 57.754C185.678 50.3059 186.977 48.6301 186.977 35.9684C186.977 29.6376 186.792 19.5827 180.483 15.6725H166.568C165.269 15.6725 155.064 16.9759 151.353 18.0931C144.859 19.5827 143.561 25.9136 137.252 25.9136C136.325 26.0998 135.397 26.0998 134.655 26.0998C132.985 26.0998 132.243 25.5412 132.243 24.6102V15.6725L132.985 14.3691C133.542 13.8105 134.098 13.0657 134.655 13.0657C144.859 4.31423 160.074 4.12803 172.876 4.12803H184.38C199.779 8.03825 198.295 24.6102 198.295 35.9684V48.8163C196.996 55.3334 193.286 61.6642 188.276 65.3882C183.081 69.1122 173.433 73.0225 167.681 73.9535C164.898 74.5121 163.228 75.6293 162.486 77.6775C161.929 79.7257 159.888 80.6567 156.363 80.6567H147.457C143.561 78.2361 141.149 74.3259 141.149 69.2984Z"
    fill="currentColor" />
  <path
    d="M51.9631 129.628V122.366C51.9631 108.959 56.4161 94.808 59.3847 81.4015L60.6835 77.1189C60.6835 72.6501 62.1678 55.1472 62.1678 50.8645V23.1206H46.2113C43.0572 23.1206 21.72 26.0998 18.5658 26.0998H11.3297C6.87676 26.0998 1.125 26.0998 1.125 20.1413C1.125 17.3483 1.125 15.8587 4.09365 14.3691C30.2549 11.3899 53.4474 9.90027 79.6086 8.59686C81.2785 8.59686 91.1122 7.10725 92.782 7.10725C97.0495 5.61765 101.502 4.12803 107.254 4.12803C114.49 4.12803 118.943 9.90027 118.943 17.3483C118.943 24.6102 115.975 26.0998 110.223 26.0998H105.77C104.471 26.0998 100.018 21.6309 98.5338 20.1413C97.235 20.1413 86.8447 21.6309 85.5459 21.6309C84.9893 21.6309 84.2472 21.8171 83.505 22.3757L82.5773 23.1206L79.6086 82.8911C73.8569 99.0906 69.4039 117.711 70.8882 133.91L68.1051 136.889H57.9004C57.3438 136.703 56.9727 136.331 56.4161 135.958C55.4884 135.214 54.9318 134.469 54.9318 133.91L51.9631 129.628Z"
    fill="currentColor" />
</svg>